<?xml version="1.0" standalone="no"?>
<!DOCTYPE svg PUBLIC "-//W3C//DTD SVG 20010904//EN"
 "http://www.w3.org/TR/2001/REC-SVG-20010904/DTD/svg10.dtd">
<svg version="1.0" xmlns="http://www.w3.org/2000/svg"
 width="512.000000pt" height="512.000000pt" viewBox="0 0 512.000000 512.000000"
 preserveAspectRatio="xMidYMid meet">
<metadata>
Created by potrace 1.11, written by Peter Selinger 2001-2013
</metadata>
<g transform="translate(0.000000,512.000000) scale(0.100000,-0.100000)"
fill="#000000" stroke="none">
<path d="M425 5095 l-25 -24 0 -2511 0 -2511 25 -24 24 -25 2111 0 2111 0 24
25 25 24 0 2033 0 2033 -503 502 -502 503 -1633 0 -1633 0 -24 -25z m3175
-550 c0 -339 3 -421 14 -443 16 -31 61 -74 93 -91 15 -8 150 -11 437 -11 l416
0 0 -1920 0 -1920 -2000 0 -2000 0 0 2400 0 2400 1520 0 1520 0 0 -415z m505
-45 l340 -340 -343 0 -342 0 0 340 c0 187 1 340 3 340 1 0 155 -153 342 -340z"/>
<path d="M880 4640 l0 -80 480 0 480 0 0 80 0 80 -480 0 -480 0 0 -80z"/>
<path d="M880 4320 l0 -80 80 0 80 0 0 80 0 80 -80 0 -80 0 0 -80z"/>
<path d="M1280 4320 l0 -80 80 0 80 0 0 80 0 80 -80 0 -80 0 0 -80z"/>
<path d="M1865 3428 c-32 -17 -76 -61 -91 -90 -11 -22 -14 -93 -14 -363 l0
-335 -135 0 c-131 0 -137 -1 -160 -25 l-25 -24 0 -831 0 -831 25 -24 24 -25
991 0 991 0 24 25 25 24 0 831 0 831 -25 24 -24 25 -776 0 -775 0 0 320 0 320
560 0 560 0 0 -80 0 -80 80 0 80 0 0 96 c0 100 -6 121 -49 167 -54 59 -29 57
-673 57 -413 -1 -599 -4 -613 -12z m1495 -1668 l0 -720 -760 0 -760 0 0 720 0
720 760 0 760 0 0 -720z"/>
<path d="M2377 2226 c-79 -29 -148 -92 -193 -176 -15 -27 -19 -56 -19 -130 0
-87 3 -99 29 -145 38 -66 94 -119 156 -147 l50 -23 0 -162 0 -163 80 0 80 0 0
163 0 162 46 19 c56 23 134 98 165 157 30 59 37 169 15 235 -23 69 -81 140
-149 182 -52 32 -67 36 -140 39 -54 2 -95 -2 -120 -11z m196 -171 c62 -41 83
-130 49 -209 -17 -37 -30 -51 -64 -66 -137 -62 -258 31 -233 181 8 45 59 104
97 112 41 9 126 -1 151 -18z"/>
<path d="M3040 2880 l0 -80 80 0 80 0 0 80 0 80 -80 0 -80 0 0 -80z"/>
</g>
</svg>
